<svg xmlns="http://www.w3.org/2000/svg" viewBox="0 0 512 512">
  <!-- Circular Background -->
  <circle cx="256" cy="256" r="240" fill="#ffffff" />
  
  <!-- Location Pin Base -->
  <path d="M256 120 C200 120 155 165 155 220 C155 300 256 390 256 390 C256 390 357 300 357 220 C357 165 312 120 256 120 Z" fill="#135A36" />
  
  <!-- Location Pin Inner -->
  <path d="M256 150 C218 150 185 182 185 220 C185 258 218 290 256 290 C294 290 327 258 327 220 C327 182 294 150 256 150 Z" fill="white" />
  
  <!-- Crane Neck and Body -->
  <path d="M256 272 C256 272 250 245 250 230 C250 215 245 195 240 185 C235 175 225 160 220 145 C215 130 220 115 230 105 C240 95 255 95 265 105 C275 115 280 130 275 145 C270 160 260 175 255 185 C250 195 245 215 245 230 C245 245 240 272 240 272" stroke="#0C0C0C" stroke-width="10" fill="none" stroke-linecap="round" />
  
  <!-- Crane Head -->
  <circle cx="230" cy="105" r="25" fill="#0C0C0C" />
  
  <!-- Crane Eye -->
  <circle cx="225" cy="100" r="3" fill="white" />
  
  <!-- Crane Beak -->
  <path d="M215 113 L195 125" stroke="#0C0C0C" stroke-width="8" fill="none" stroke-linecap="round" />
  
  <!-- Crane Crown - Yellow -->
  <path d="M230 92 C230 92 235 80 245 75 C255 70 265 75 268 85 C271 95 265 105 260 102" stroke="#FCDC04" stroke-width="6" fill="none" stroke-linecap="round" />
  
  <!-- Crane Crown - Red -->
  <path d="M240 88 C240 88 248 78 256 80 C264 82 266 90 260 98" stroke="#D90000" stroke-width="5" fill="none" stroke-linecap="round" />
  
  <!-- Border -->
  <circle cx="256" cy="256" r="240" fill="none" stroke="#135A36" stroke-width="8" />
</svg>